<?xml version="1.0" standalone="no"?>
<!DOCTYPE svg PUBLIC "-//W3C//DTD SVG 20010904//EN"
 "http://www.w3.org/TR/2001/REC-SVG-20010904/DTD/svg10.dtd">
<svg version="1.0" xmlns="http://www.w3.org/2000/svg"
 width="75.000000pt" height="75.000000pt" viewBox="0 0 75.000000 75.000000"
 preserveAspectRatio="xMidYMid meet">

<g transform="translate(0.000000,75.000000) scale(0.100000,-0.100000)"
fill="#045498" stroke="none">
<path d="M282 735 c-169 -48 -275 -186 -275 -360 0 -113 28 -181 107 -261 80
-79 148 -107 261 -107 103 0 176 27 248 93 120 110 154 259 95 418 -30 80
-122 171 -202 201 -78 29 -166 35 -234 16z m235 -40 c74 -33 137 -96 176 -174
28 -58 32 -75 32 -146 -1 -66 -6 -91 -29 -141 -35 -77 -103 -145 -181 -181
-75 -34 -183 -38 -256 -10 -44 17 -47 20 -53 64 -3 25 -6 62 -6 82 l0 36 88 0
c72 1 96 5 137 25 41 20 64 24 125 23 l76 -1 -14 156 c-7 86 -15 158 -18 161
-3 3 -33 7 -68 9 -49 3 -74 -1 -112 -17 -27 -12 -69 -26 -93 -32 -57 -13 -151
-2 -151 17 0 8 -5 14 -11 14 -7 0 -9 -16 -5 -47 14 -118 38 -445 32 -450 -11
-11 -92 76 -120 127 -93 171 -23 390 154 480 89 45 204 47 297 5z m-17 -147
c0 -26 -3 -30 -10 -18 -9 12 -16 8 -45 -24 -29 -33 -37 -37 -50 -26 -15 13
-39 -9 -116 -103 -9 -12 -20 -19 -24 -15 -8 7 112 148 126 148 4 0 11 -5 15
-11 4 -7 17 0 35 17 27 26 40 52 20 39 -5 -3 -12 -1 -15 4 -6 9 13 18 47 20
13 1 17 -7 17 -31z m3 -55 c3 -10 8 -34 11 -54 4 -20 15 -44 26 -54 25 -23 25
-36 -1 -70 -20 -24 -26 -26 -63 -20 -23 3 -53 6 -68 7 -24 1 -28 6 -33 37 -4
20 -8 46 -11 59 -2 12 0 23 6 24 30 4 36 0 42 -32 5 -23 5 -18 2 18 -3 32 -1
53 6 54 30 4 36 0 42 -32 5 -24 6 -19 2 17 -3 36 -1 53 8 56 22 9 27 8 31 -10z
m-148 -105 c2 -7 6 -29 9 -49 6 -31 3 -37 -14 -42 -25 -6 -26 -4 -35 56 -7 44
-6 47 14 47 12 0 23 -6 26 -12z m-47 -71 c3 -21 -1 -27 -16 -27 -23 0 -38 40
-19 52 19 12 32 3 35 -25z"/>
<path d="M481 469 c0 -13 4 -33 9 -44 7 -14 8 -8 3 20 -7 46 -13 59 -12 24z"/>
<path d="M430 434 c0 -10 5 -26 10 -34 8 -11 9 -7 4 15 -8 37 -14 45 -14 19z"/>
<path d="M387 370 c3 -25 7 -47 9 -49 8 -9 2 55 -6 74 -6 13 -7 5 -3 -25z"/>
<path d="M450 370 c-26 -26 -25 -36 4 -55 27 -18 69 -7 80 20 8 22 8 21 -10
39 -21 22 -50 20 -74 -4z m66 -12 c3 -5 0 -15 -6 -24 -10 -11 -16 -12 -26 -3
-8 6 -14 8 -14 3 0 -5 -4 -2 -9 6 -6 8 -8 17 -6 21 7 10 55 8 61 -3z"/>
<path d="M332 370 c0 -14 3 -34 8 -45 l9 -20 -1 20 c0 11 -4 31 -8 45 l-8 25
0 -25z"/>
</g>
</svg>
