<svg xmlns="http://www.w3.org/2000/svg" width="98" height="31.87" viewBox="0 0 98 31.87"><defs><style>.a{fill:#065695;}.b{fill:#fff;}</style></defs><g transform="translate(-663 -1931)"><rect class="a" width="98" height="31.87" rx="5" transform="translate(663 1931)"/><g transform="translate(672.561 1935.781)"><path class="b" d="M9.183,1.6H1.63A1.623,1.623,0,0,0,0,3.23V19.947a1.623,1.623,0,0,0,1.63,1.63H9.183a1.623,1.623,0,0,0,1.63-1.63V3.23A1.623,1.623,0,0,0,9.183,1.6ZM5.415,20.382A1.087,1.087,0,1,1,6.5,19.3,1.09,1.09,0,0,1,5.415,20.382Zm4.111-2.717H1.286V5.349H9.527Z" transform="translate(0 -1.31)"/><g transform="translate(15.957)"><path class="b" d="M89.15,4.325,88.7,5.719h-.6L89.6,1.3h.688l1.5,4.419h-.616l-.471-1.395ZM90.6,3.89l-.435-1.268c-.091-.29-.163-.543-.217-.8h-.018a7.533,7.533,0,0,1-.217.8l-.435,1.286H90.6Z" transform="translate(-88.1 -1.065)"/><path class="b" d="M108.916,8.2l.616,1.775a5.9,5.9,0,0,1,.254.815h.018q.109-.38.272-.815l.616-1.775h.6l-1.232,3.17h-.543L108.3,8.2Z" transform="translate(-104.641 -6.715)"/><path class="b" d="M128.3,10.363a4.841,4.841,0,0,0,.054.761h-.525l-.054-.4h-.018a1.165,1.165,0,0,1-.978.471.915.915,0,0,1-.978-.906c0-.761.688-1.177,1.9-1.177V9.041a.645.645,0,0,0-.724-.724,1.551,1.551,0,0,0-.833.235l-.127-.38a2.049,2.049,0,0,1,1.05-.272c.978,0,1.213.67,1.213,1.3v1.159Zm-.561-.869c-.634-.018-1.34.091-1.34.706a.5.5,0,0,0,.543.543.793.793,0,0,0,.779-.525.615.615,0,0,0,.018-.181Z" transform="translate(-118.972 -6.469)"/><path class="b" d="M144.362,1.643a.357.357,0,0,1-.362-.38A.357.357,0,0,1,144.38.9a.352.352,0,0,1,.362.362.371.371,0,0,1-.38.38Zm-.272,3.749V2.222h.58v3.17Z" transform="translate(-133.875 -0.737)"/><path class="b" d="M152.8,0h.58V4.655h-.58Z" transform="translate(-141.081)"/><path class="b" d="M162.1,10.363a4.843,4.843,0,0,0,.054.761h-.525l-.054-.4h-.018a1.165,1.165,0,0,1-.978.471.915.915,0,0,1-.978-.906c0-.761.688-1.177,1.9-1.177V9.041a.645.645,0,0,0-.724-.724,1.551,1.551,0,0,0-.833.235l-.127-.38a2.049,2.049,0,0,1,1.05-.272c.978,0,1.214.67,1.214,1.3v1.159Zm-.561-.869c-.634-.018-1.34.091-1.34.706a.5.5,0,0,0,.543.543.793.793,0,0,0,.779-.525.616.616,0,0,0,.018-.181V9.494Z" transform="translate(-146.65 -6.469)"/><path class="b" d="M178.218,0h.58V1.992h.018a1.153,1.153,0,0,1,1.087-.58,1.429,1.429,0,0,1,1.34,1.612,1.515,1.515,0,0,1-1.431,1.7,1.171,1.171,0,0,1-1.069-.6h-.018l-.036.525H178.2c.018-.217.018-.543.018-.815Zm.58,3.387a.882.882,0,0,0,.018.217.892.892,0,0,0,.869.67c.616,0,.96-.489.96-1.214,0-.634-.326-1.177-.942-1.177a.9.9,0,0,0-.869.706.918.918,0,0,0-.036.235Z" transform="translate(-161.881)"/><path class="b" d="M198.7,0h.58V4.655h-.58Z" transform="translate(-178.668)"/><path class="b" d="M206.261,9.475a1.02,1.02,0,0,0,1.087,1.1,1.99,1.99,0,0,0,.869-.163l.109.4a2.632,2.632,0,0,1-1.069.2A1.474,1.474,0,0,1,205.7,9.421,1.548,1.548,0,0,1,207.2,7.7a1.335,1.335,0,0,1,1.3,1.485,1.043,1.043,0,0,1-.018.272Zm1.684-.417c0-.362-.145-.942-.8-.942a.959.959,0,0,0-.887.942Z" transform="translate(-184.4 -6.305)"/><path class="b" d="M232.721,11.115a1.515,1.515,0,0,1-1.521-1.63A1.552,1.552,0,0,1,232.776,7.8,1.5,1.5,0,0,1,234.3,9.43a1.558,1.558,0,0,1-1.576,1.684Zm.018-.435c.543,0,.96-.525.96-1.232,0-.543-.272-1.214-.942-1.214s-.978.634-.978,1.232c0,.688.4,1.214.96,1.214Z" transform="translate(-205.282 -6.387)"/><path class="b" d="M251.936,8.642a6.143,6.143,0,0,0-.036-.851h.507l.054.507h.018a1.2,1.2,0,0,1,1.05-.6c.435,0,1.123.254,1.123,1.358v1.9h-.58V9.131c0-.507-.181-.942-.743-.942a.837.837,0,0,0-.779.6,1.232,1.232,0,0,0-.036.272v1.92h-.58Z" transform="translate(-222.232 -6.305)"/><path class="b" d="M278.55,4v.761h.833V5.2h-.833V6.9c0,.4.109.616.435.616a1.234,1.234,0,0,0,.326-.036l.018.435a1.679,1.679,0,0,1-.507.072.8.8,0,0,1-.616-.235,1.207,1.207,0,0,1-.217-.833V5.177H277.5V4.761h.489v-.58Z" transform="translate(-243.196 -3.276)"/><path class="b" d="M291.218,0h.58V1.974h.018a.985.985,0,0,1,.417-.4,1.1,1.1,0,0,1,.6-.163c.417,0,1.1.254,1.1,1.358V4.655h-.6V2.825c0-.525-.2-.942-.743-.942a.821.821,0,0,0-.779.58.618.618,0,0,0-.036.272v1.92h-.58V0Z" transform="translate(-254.414)"/><path class="b" d="M310.543,9.475a1.02,1.02,0,0,0,1.087,1.1,2.146,2.146,0,0,0,.887-.163l.109.4a2.632,2.632,0,0,1-1.069.2A1.474,1.474,0,0,1,310,9.421,1.548,1.548,0,0,1,311.5,7.7a1.335,1.335,0,0,1,1.3,1.485,1.045,1.045,0,0,1-.018.272Zm1.684-.417c0-.362-.145-.942-.8-.942a.959.959,0,0,0-.887.942Z" transform="translate(-269.809 -6.305)"/><path class="b" d="M336.462,1.643a.357.357,0,0,1-.362-.38A.357.357,0,0,1,336.48.9a.352.352,0,0,1,.362.362.371.371,0,0,1-.38.38Zm-.272,3.749V2.222h.58v3.17Z" transform="translate(-291.182 -0.737)"/><path class="b" d="M345,1.191a5.658,5.658,0,0,1,1.087-.091,1.786,1.786,0,0,1,1.232.362,1.222,1.222,0,0,1,.4.924,1.333,1.333,0,0,1-.344.942,1.836,1.836,0,0,1-1.358.489,1.767,1.767,0,0,1-.453-.036V5.556H345Zm.58,2.119a1.771,1.771,0,0,0,.471.054c.688,0,1.1-.344,1.1-.942s-.417-.869-1.05-.869a1.907,1.907,0,0,0-.543.054v1.7Z" transform="translate(-298.47 -0.901)"/><path class="b" d="M363.8,0h.579V1.974h.018a.984.984,0,0,1,.417-.4,1.1,1.1,0,0,1,.6-.163c.435,0,1.1.254,1.1,1.358V4.655h-.58V2.825c0-.525-.2-.942-.743-.942a.821.821,0,0,0-.779.58.619.619,0,0,0-.036.272v1.92h-.58V0Z" transform="translate(-313.865)"/><path class="b" d="M383.921,11.115a1.515,1.515,0,0,1-1.521-1.63A1.552,1.552,0,0,1,383.976,7.8,1.5,1.5,0,0,1,385.5,9.43a1.548,1.548,0,0,1-1.576,1.684Zm.018-.435c.543,0,.96-.525.96-1.232,0-.543-.272-1.214-.942-1.214s-.978.634-.978,1.232c0,.688.4,1.214.96,1.214Z" transform="translate(-329.096 -6.387)"/><path class="b" d="M403.318,8.724c0-.326,0-.6-.018-.851h.507l.036.525h.018a1.2,1.2,0,0,1,1.05-.6c.435,0,1.123.254,1.123,1.358v1.9h-.58V9.213c0-.507-.2-.942-.743-.942a.837.837,0,0,0-.779.6,1.233,1.233,0,0,0-.036.272v1.92h-.58Z" transform="translate(-346.211 -6.387)"/><path class="b" d="M422.561,9.475a1.02,1.02,0,0,0,1.087,1.1,1.99,1.99,0,0,0,.869-.163l.109.4a2.632,2.632,0,0,1-1.069.2A1.474,1.474,0,0,1,422,9.421,1.546,1.546,0,0,1,423.485,7.7a1.335,1.335,0,0,1,1.3,1.485,1.042,1.042,0,0,1-.018.272Zm1.684-.417c0-.362-.145-.942-.8-.942a.959.959,0,0,0-.887.942Z" transform="translate(-361.524 -6.305)"/></g><g transform="translate(15.83 7.462)"><path class="b" d="M91.294,42.2,87.4,53.629h1.775l1.159-3.514H94.1l1.2,3.514h1.829L93.232,42.2Zm.924,1.884c.127.507.272,1.032.453,1.612l1.051,3.025H90.733l1.032-3.061C91.928,45.188,92.073,44.645,92.218,44.084Z" transform="translate(-87.4 -42.019)"/><path class="b" d="M148.9,58.6a3.24,3.24,0,0,0-2.753,1.322l-.072-1.141H144.5l.018.145c.054.706.072,1.485.072,2.608v8.821h1.739V66.243a3.081,3.081,0,0,0,2.373,1.014,3.572,3.572,0,0,0,2.626-1.123,4.719,4.719,0,0,0,1.159-3.333,4.571,4.571,0,0,0-1.014-3.043A3.423,3.423,0,0,0,148.9,58.6Zm-.417,1.431c1.54,0,2.228,1.431,2.228,2.844,0,1.829-.887,2.952-2.3,2.952a2.107,2.107,0,0,1-2.047-1.612,2.453,2.453,0,0,1-.054-.561V62.259c0-.127.036-.272.054-.435,0-.054.018-.091.018-.145A2.219,2.219,0,0,1,148.485,60.031Z" transform="translate(-134.158 -55.448)"/><path class="b" d="M198.1,58.6a3.24,3.24,0,0,0-2.753,1.322l-.072-1.141H193.7v.145c.054.706.072,1.485.072,2.608v8.821h1.739V66.243a3.081,3.081,0,0,0,2.373,1.014,3.572,3.572,0,0,0,2.626-1.123,4.719,4.719,0,0,0,1.159-3.333,4.571,4.571,0,0,0-1.014-3.043A3.357,3.357,0,0,0,198.1,58.6Zm-.417,1.431c1.539,0,2.228,1.431,2.228,2.844,0,1.829-.887,2.952-2.3,2.952a2.107,2.107,0,0,1-2.047-1.612,2.452,2.452,0,0,1-.054-.561V62.259c0-.127.036-.272.054-.435,0-.054.018-.091.018-.145A2.218,2.218,0,0,1,197.685,60.031Z" transform="translate(-174.447 -55.448)"/><path class="b" d="M261.111,46.235c-1.612-.634-2.137-1.123-2.137-2.029,0-.761.616-1.54,1.974-1.54a4,4,0,0,1,2.029.507l.145.091.489-1.449-.091-.054A5.13,5.13,0,0,0,261,41.2c-2.21,0-3.749,1.3-3.749,3.17,0,1.5.96,2.554,3.043,3.314,1.467.543,2.01,1.1,2.01,2.083,0,1.087-.851,1.775-2.192,1.775a4.727,4.727,0,0,1-2.5-.706l-.145-.091L257,52.23l.091.054a5.933,5.933,0,0,0,2.916.761c2.97,0,4.021-1.811,4.021-3.369C264.027,48.028,263.176,47.05,261.111,46.235Z" transform="translate(-226.282 -41.2)"/><path class="b" d="M299.652,48.7l-1.7.525v1.431H296.7v1.377h1.25v4.238a3.237,3.237,0,0,0,.6,2.192,2.221,2.221,0,0,0,1.666.652,4.3,4.3,0,0,0,1.34-.2l.091-.036-.091-1.377-.163.054a2.406,2.406,0,0,1-.8.091c-.67,0-.96-.417-.96-1.413V52.051h2.083V50.674h-2.065Z" transform="translate(-258.791 -47.342)"/><path class="b" d="M329.611,58.6A4.076,4.076,0,0,0,325.5,63a3.938,3.938,0,0,0,3.985,4.256h.018a4.078,4.078,0,0,0,4.111-4.4,4.377,4.377,0,0,0-1.1-3.061A3.824,3.824,0,0,0,329.611,58.6Zm-.054,1.358c1.558,0,2.264,1.521,2.264,2.934,0,1.739-.96,2.988-2.3,2.988H329.5c-1.3,0-2.264-1.232-2.264-2.952C327.239,61.462,327.963,59.958,329.557,59.958Z" transform="translate(-282.375 -55.448)"/><path class="b" d="M379.929,58.672l-.109-.018a1.682,1.682,0,0,0-.435-.054,2.459,2.459,0,0,0-2.174,1.395l-.054-1.214H375.6l.018.145c.054.688.072,1.449.072,2.5l-.018,5.651h1.739V62.657a3.859,3.859,0,0,1,.054-.67,1.916,1.916,0,0,1,1.829-1.739,3.826,3.826,0,0,1,.471.036l.181.018v-1.63Z" transform="translate(-323.401 -55.449)"/><path class="b" d="M403.312,58.5c-2.3,0-3.912,1.847-3.912,4.474a3.871,3.871,0,0,0,4.075,4.184,6.656,6.656,0,0,0,2.735-.525l.109-.054-.326-1.286-.145.054a5.29,5.29,0,0,1-2.173.38,2.407,2.407,0,0,1-2.59-2.518l5.579.018.018-.109a3.8,3.8,0,0,0,.054-.724C406.735,60.6,405.848,58.5,403.312,58.5Zm-.127,1.3a1.678,1.678,0,0,1,1.268.489,2.552,2.552,0,0,1,.6,1.612H401.1A2.227,2.227,0,0,1,403.185,59.8Z" transform="translate(-342.891 -55.367)"/></g></g></g></svg>