<svg xmlns="http://www.w3.org/2000/svg" width="98" height="32" viewBox="0 0 98 32"><defs><style>.a{fill:#045498;}.b,.c,.d,.g{fill:#fff;}.b{stroke:#fff;stroke-miterlimit:10;stroke-width:0.2px;}.d{stroke:#045498;}.e{opacity:0.2;}.f{opacity:0.12;}.g{opacity:0.25;}</style></defs><path class="a" d="M94.37,32H3.63A3.791,3.791,0,0,1,0,28V4A3.791,3.791,0,0,1,3.63,0H94.37A3.791,3.791,0,0,1,98,4V28A3.791,3.791,0,0,1,94.37,32Z"/><path class="b" d="M45.756,9.54a2.317,2.317,0,0,1-.508,1.6,2.131,2.131,0,0,1-3.194,0A2.479,2.479,0,0,1,41.4,9.38a2.479,2.479,0,0,1,.653-1.76,2.04,2.04,0,0,1,1.6-.72,1.791,1.791,0,0,1,.871.24,1.615,1.615,0,0,1,.653.56l-.363.4a1.3,1.3,0,0,0-1.161-.56,1.388,1.388,0,0,0-1.161.56,1.733,1.733,0,0,0-.508,1.36,1.733,1.733,0,0,0,.508,1.36,1.79,1.79,0,0,0,1.161.56,1.522,1.522,0,0,0,1.234-.56,1.394,1.394,0,0,0,.363-.96h-1.6V9.22h2.105v.32Zm3.339-2h-1.96V9.06H48.95v.56H47.135v1.52h1.96v.64H46.554V6.98h2.541Zm2.4,4.24H50.91V7.54H49.676V6.98h3.049v.56H51.49Zm3.339,0V6.98h.581v4.8Zm3.049,0H57.3V7.54H56.064V6.98H59.04v.56H57.806v4.24Zm6.9-.64a2.131,2.131,0,0,1-3.194,0,2.479,2.479,0,0,1-.653-1.76,2.479,2.479,0,0,1,.653-1.76,2.131,2.131,0,0,1,3.194,0,2.479,2.479,0,0,1,.653,1.76A2.479,2.479,0,0,1,64.775,11.14Zm-2.759-.4a1.643,1.643,0,0,0,1.161.56,1.388,1.388,0,0,0,1.161-.56,2.033,2.033,0,0,0,.508-1.36,1.733,1.733,0,0,0-.508-1.36,1.643,1.643,0,0,0-1.161-.56,1.388,1.388,0,0,0-1.161.56,2.033,2.033,0,0,0-.508,1.36A1.733,1.733,0,0,0,62.016,10.74Zm4.21,1.04V6.98h.653l2.105,3.76V6.98h.581v4.8h-.581l-2.25-3.92v3.92h-.508Z" transform="translate(-11.347 -1.38)"/><path class="c" d="M60.7,20.86a3.22,3.22,0,0,0-3.121,3.44A3.268,3.268,0,0,0,60.7,27.74a3.22,3.22,0,0,0,3.121-3.44A3.173,3.173,0,0,0,60.7,20.86Zm0,5.44a1.914,1.914,0,0,1-1.742-2.08A1.914,1.914,0,0,1,60.7,22.14a1.866,1.866,0,0,1,1.742,2.08A1.914,1.914,0,0,1,60.7,26.3Zm-6.751-5.44a3.22,3.22,0,0,0-3.121,3.44,3.268,3.268,0,0,0,3.121,3.44A3.22,3.22,0,0,0,57.07,24.3,3.173,3.173,0,0,0,53.949,20.86Zm0,5.44a1.914,1.914,0,0,1-1.742-2.08,1.914,1.914,0,0,1,1.742-2.08,1.866,1.866,0,0,1,1.742,2.08A1.914,1.914,0,0,1,53.949,26.3Zm-8.058-4.4v1.44h3.121a3.176,3.176,0,0,1-.726,1.84,3.075,3.075,0,0,1-2.4,1.04,3.572,3.572,0,0,1-3.412-3.84,3.618,3.618,0,0,1,3.412-3.84,3.43,3.43,0,0,1,2.4,1.04l.944-1.04a4.441,4.441,0,0,0-3.267-1.44A5.157,5.157,0,0,0,41.1,22.38a5.157,5.157,0,0,0,4.864,5.28A4,4,0,0,0,49.3,26.14a5.11,5.11,0,0,0,1.161-3.36,3.3,3.3,0,0,0-.073-.88h-4.5Zm32.957,1.12a2.89,2.89,0,0,0-2.613-2.16c-1.6,0-2.9,1.36-2.9,3.44a3.212,3.212,0,0,0,3.049,3.44,2.94,2.94,0,0,0,2.541-1.52l-1.016-.8a1.746,1.746,0,0,1-1.524.96,1.568,1.568,0,0,1-1.524-1.04l4.138-1.92-.145-.4Zm-4.21,1.12a1.876,1.876,0,0,1,1.6-2,1.269,1.269,0,0,1,1.161.72Zm-3.412,3.28h1.379v-10H71.226Zm-2.178-5.84a2.3,2.3,0,0,0-1.67-.8A3.3,3.3,0,0,0,64.4,24.22a3.176,3.176,0,0,0,2.976,3.36,2.014,2.014,0,0,0,1.6-.8h.073v.48c0,1.28-.653,2-1.67,2a1.64,1.64,0,0,1-1.524-1.2l-1.161.56a3.017,3.017,0,0,0,2.759,2c1.6,0,2.9-1.04,2.9-3.52V21.02H69.048v.56Zm-1.6,4.72a1.914,1.914,0,0,1-1.742-2.08,1.914,1.914,0,0,1,1.742-2.08,1.863,1.863,0,0,1,1.67,2.08A1.863,1.863,0,0,1,67.451,26.3Zm17.713-8.88H81.9v10h1.379V23.66h1.887a3,3,0,0,0,2.976-3.12A3,3,0,0,0,85.164,17.42Zm.073,4.8h-1.96V18.78h1.96a1.681,1.681,0,0,1,1.6,1.68A1.754,1.754,0,0,1,85.236,22.22Zm8.348-1.44a2.415,2.415,0,0,0-2.4,1.52l1.234.56a1.256,1.256,0,0,1,1.234-.72,1.4,1.4,0,0,1,1.452,1.28v.08a2.681,2.681,0,0,0-1.379-.4,2.4,2.4,0,0,0-2.613,2.24,2.218,2.218,0,0,0,2.25,2.24,2,2,0,0,0,1.742-.96h.073v.8h1.307V23.58a2.852,2.852,0,0,0-2.9-2.8Zm-.145,5.52c-.436,0-1.089-.24-1.089-.88,0-.8.8-1.04,1.452-1.04a2.6,2.6,0,0,1,1.234.32A1.759,1.759,0,0,1,93.439,26.3Zm7.622-5.28-1.524,4.32h-.073l-1.6-4.32H96.416l2.4,6.08-1.379,3.36h1.379l3.7-9.44Zm-12.2,6.4h1.379v-10H88.866Z" transform="translate(-11.264 -3.42)"/><g transform="translate(7.259 5.718)"><path class="d" d="M10.29,7.5A1.677,1.677,0,0,0,10,8.62V26.3a1.68,1.68,0,0,0,.363,1.12l.073.08,9-9.92v-.16Z" transform="translate(-10 -7.218)"/><path class="d" d="M25.876,22.6,22.9,19.32v-.24l2.976-3.28.073.08,3.557,2.24a1.264,1.264,0,0,1,0,2.32Z" transform="translate(-13.536 -8.878)"/><path class="d" d="M22.523,23.36,19.474,20,10.4,30c.363.4.871.4,1.524.08l10.6-6.72" transform="translate(-10.11 -9.718)"/><path class="d" d="M22.523,14.074l-10.6-6.64a1.1,1.1,0,0,0-1.524.08l9.074,9.92Z" transform="translate(-10.11 -7.152)"/><path class="e" d="M22.45,24.1,11.924,30.66a1.1,1.1,0,0,1-1.452,0l-.073.08.073.08a1.1,1.1,0,0,0,1.452,0Z" transform="translate(-10.11 -10.538)"/><path class="f" d="M10.29,29.84A1.677,1.677,0,0,1,10,28.72v.08a1.68,1.68,0,0,0,.363,1.12v-.08H10.29Zm15.68-8.8-3.63,2.24.073.08,3.557-2.24A1.337,1.337,0,0,0,26.7,20C26.7,20.4,26.406,20.72,25.97,21.04Z" transform="translate(-10 -9.718)"/><path class="g" d="M11.815,7.509l14.156,8.88c.436.32.726.64.726,1.04a1.337,1.337,0,0,0-.726-1.12L11.815,7.429C10.8,6.789,10,7.269,10,8.549v.08C10,7.429,10.8,6.869,11.815,7.509Z" transform="translate(-10 -7.147)"/></g></svg>