<svg xmlns="http://www.w3.org/2000/svg" width="32" height="32" viewBox="0 0 32 32"><defs><style>.a{fill:#065695;}.b{fill:#fff;}</style></defs><g transform="translate(-140 -1798)"><circle class="a" cx="16" cy="16" r="16" transform="translate(140 1798)"/><g transform="translate(147.2 1807.923)"><path class="b" d="M16.852,81.166c-.477-.849-1-1.005-2.05-1.065s-3.7-.1-6-.1-4.951.03-6,.1-1.572.216-2.054,1.066S0,83.475,0,86.047v.009c0,2.561.253,4.033.745,4.872s1,1,2.053,1.075,3.7.1,6,.1,4.946-.036,6-.1,1.573-.226,2.05-1.075c.5-.839.747-2.311.747-4.872v-.009C17.6,83.475,17.349,82.014,16.852,81.166ZM6.6,89.35v-6.6l5.5,3.3Z" transform="translate(0 -80)"/></g></g></svg>