<?xml version="1.0" encoding="UTF-8" standalone="no"?>
<svg
   xmlns:dc="http://purl.org/dc/elements/1.1/"
   xmlns:cc="http://creativecommons.org/ns#"
   xmlns:rdf="http://www.w3.org/1999/02/22-rdf-syntax-ns#"
   xmlns:svg="http://www.w3.org/2000/svg"
   xmlns="http://www.w3.org/2000/svg"
   width="70.0px"
   height="70.0px"
   viewBox="0 0 70.0 70.0"
   version="1.1"
   id="SVGRoot">
  <defs
     id="defs832" />
  <metadata
     id="metadata835">
    <rdf:RDF>
      <cc:Work
         rdf:about="">
        <dc:format>image/svg+xml</dc:format>
        <dc:type
           rdf:resource="http://purl.org/dc/dcmitype/StillImage" />
        <dc:title></dc:title>
      </cc:Work>
    </rdf:RDF>
  </metadata>
  <g
     id="layer1">
    <g
       transform="matrix(0.70000001,0,0,0.69972237,216.85842,49.509654)"
       id="layer1-2">
      <path
         style="fill:#064495;fill-opacity:1;stroke-width:0.16038"
         d="m -261.63647,29.249672 c -22.14136,-0.84383 -41.24518,-16.26757 -46.6483,-37.6621605 -1.7606,-6.9714095 -1.9974,-14.9979695 -0.64341,-21.8089295 4.02798,-20.26192 19.41452,-35.64845 39.67644,-39.67643 5.75658,-1.14439 13.16271,-1.14439 18.91929,0 20.26191,4.02798 35.64844,19.41451 39.67642,39.67643 1.14438,5.75657 1.14438,13.16271 0,18.91928 -3.07019,15.4439495 -12.80852,28.29005 -26.74213,35.27627 -7.41484,3.71775 -16.01243,5.58904 -24.23831,5.27554 z m 5.53313,-3.10735 c 11.55565,-0.98618 21.81196,-5.78598 29.85173,-13.97018 3.1098,-3.1656605 5.16327,-5.8796405 7.44278,-9.8367505 4.49246,-7.79872 6.69201,-17.7495195 5.92083,-26.7859195 -0.98619,-11.55566 -5.78598,-21.81197 -13.97018,-29.85174 -3.16565,-3.10979 -5.87964,-5.16327 -9.83675,-7.44277 -7.79872,-4.49247 -17.74951,-6.69202 -26.78591,-5.92084 -15.81334,1.34954 -29.32728,9.97616 -37.29452,23.80694 -4.49247,7.79871 -6.69203,17.74951 -5.92084,26.78591 1.34953,15.8133195 9.97615,29.32726 23.80693,37.29451 7.79362,4.48953 17.75545,6.69152 26.78593,5.92084 z m -4.81142,-30.5290705 c -1.32012,-0.4175 -2.29116,-1.09946 -7.50691,-5.27213 -3.4902,-2.7921995 -5.38785,-4.4717195 -6.50983,-5.7615095 l -0.51557,-0.59269 0.51332,-1.73283 c 1.26888,-4.28342 2.19033,-7.87489 2.85176,-11.11508 l 0.27829,-1.36323 2.11658,-0.0448 c 1.16411,-0.0246 2.11657,-0.004 2.11657,0.0448 0,0.0493 -0.28899,0.45517 -0.64222,0.90203 -2.075,2.62507 -2.87734,5.39385 -2.06428,7.12356 0.41982,0.89314 0.72747,1.11743 2.11341,1.5408 2.16215,0.66048 4.07367,0.14948 5.76402,-1.54086 0.63832,-0.63832 1.02707,-0.89275 1.49455,-0.97816 0.34751,-0.0635 0.89254,-0.26368 1.21119,-0.44488 l 0.57935,-0.32945 0.70246,0.5522 c 0.38635,0.303699 1.42472,1.167499 2.30749,1.91954 0.88277,0.75204 2.59712,2.1839 3.80966,3.18191 4.55797,3.75153 6.69649,6.11061 6.69649,7.38712 0,0.87194 -0.57481,1.4116095 -1.39429,1.3090595 -0.10529,-0.0132 -1.79593,-1.6455795 -3.75696,-3.6275595 -3.14717,-3.18079 -3.62481,-3.60361 -4.07078,-3.60361 -0.66423,0 -1.20269,0.56887 -1.20269,1.2706 0,0.47125 0.33759,0.869409 3.13092,3.692649 1.72201,1.740441 3.23104,3.3013505 3.3534,3.4686805 0.29616,0.40504 0.092,0.75712 -0.64048,1.10473 -1.11771,0.53038 -1.35938,0.37545 -4.5641,-2.9259805 -2.87854,-2.9654 -3.35721,-3.38626 -3.86406,-3.39739 -0.42962,-0.009 -1.10443,0.79027 -1.10443,1.30883 0,0.52156 0.36146,0.94941 3.64348,4.3125905 1.08341,1.11019 1.96983,2.1081 1.96983,2.21757 0,0.10946 -0.21096,0.40999 -0.4688,0.66783 -0.35779,0.35779 -0.61684,0.4688 -1.09394,0.4688 -0.59592,0 -0.74708,-0.12367 -3.23419,-2.64627 -2.33868,-2.37204 -2.66455,-2.64628 -3.14451,-2.64628 -0.38742,0 -0.62733,0.11682 -0.86784,0.42258 -0.69537,0.88402 -0.48454,1.24179 2.51535,4.26855 1.05148,1.06089 1.06342,1.08235 0.59612,1.07184 -0.26226,-0.006 -0.76552,-0.10203 -1.11836,-0.21362 z m 20.50793,-7.0633695 c -0.57517,-0.25031 -0.68045,-0.49094 -1.65316,-3.77853 -1.30638,-4.4154 -2.94469,-8.97273 -4.91596,-13.67493 l -1.19447,-2.84925 0.33979,-0.4596 c 0.27965,-0.37825 0.68466,-0.56263 2.28838,-1.04179 3.67906,-1.09923 7.60724,-1.70123 11.10101,-1.70123 1.6669,0 1.84883,0.0297 2.14814,0.35101 0.32248,0.34614 0.32701,0.50286 0.32701,11.31478 0,12.10505 0.0274,11.76832 -0.97536,11.96889 -1.0223,0.20445 -6.93369,0.10203 -7.46538,-0.12935 z m -46.53199,-2.34097 c -0.19976,-0.0803 -0.43577,-0.3368 -0.52447,-0.5701 -0.10399,-0.27351 -0.14589,-4.31869 -0.11796,-11.38693 l 0.0433,-10.96272 0.3506,-0.35054 c 0.34705,-0.34699 0.37407,-0.34859 2.66725,-0.15812 5.1207,0.42532 8.53535,1.18127 9.93988,2.20055 0.70187,0.50934 0.75481,0.59719 0.75481,1.2525 0,0.38761 -0.18915,1.74012 -0.42032,3.00558 -0.84994,4.65257 -4.04103,16.3626 -4.59325,16.85535 -0.28109,0.25083 -0.70911,0.27959 -4.02561,0.2705 -2.04109,-0.006 -3.87451,-0.0758 -4.07426,-0.15607 z m 40.37811,-3.02694 c -1.45545,-1.47429 -3.22365,-3.14353 -3.92932,-3.70943 -1.6058,-1.28773 -4.83923,-4.08859 -6.04232,-5.23398 -0.77767,-0.74037 -1.02277,-0.87947 -1.68399,-0.95567 -0.64483,-0.0743 -0.94593,-0.007 -1.8059,0.40187 -0.56763,0.27008 -1.41022,0.56956 -1.87242,0.66552 -0.71325,0.14807 -0.93316,0.28827 -1.45385,0.92687 -0.83562,1.02486 -1.31829,1.43226 -1.95307,1.6485 -0.57388,0.1955 -1.509,0.10722 -2.2002,-0.20771 -0.37447,-0.17062 -0.4135,-0.26215 -0.3413,-0.80041 0.29949,-2.23284 3.78343,-6.3893 6.51621,-7.77407 0.77832,-0.39439 1.06866,-0.45149 2.25649,-0.44381 1.32303,0.009 1.45782,0.0469 4.57084,1.29832 1.76418,0.70923 3.64571,1.44896 4.18117,1.64386 l 0.97356,0.35436 0.65375,1.55493 c 0.73363,1.74491 2.34556,6.144 3.64174,9.9386 0.47385,1.38721 0.9393,2.72067 1.03434,2.96324 0.095,0.24258 0.15654,0.43396 0.13667,0.42529 -0.0199,-0.009 -1.22695,-1.22199 -2.6824,-2.69628 z"
         id="path291" />
    </g>
  </g>
</svg>
