<svg xmlns="http://www.w3.org/2000/svg" xmlns:xlink="http://www.w3.org/1999/xlink" width="64" height="64" viewBox="0 0 64 64">
  <defs>
    <clipPath id="clip-Artboard_7">
      <rect width="64" height="64"/>
    </clipPath>
  </defs>
  <g id="Artboard_7" data-name="Artboard – 7" clip-path="url(#clip-Artboard_7)">
    <rect width="64" height="64" fill="#fff"/>
    <g id="Group_640" data-name="Group 640" transform="translate(-1524 -1138)">
      <g id="Group_191" data-name="Group 191" transform="translate(1524 1138)">
        <g id="Ellipse_38" data-name="Ellipse 38" fill="#fff" stroke="#045498" stroke-width="2">
          <circle cx="32" cy="32" r="32" stroke="none"/>
          <circle cx="32" cy="32" r="31" fill="none"/>
        </g>
        <g id="Group_190" data-name="Group 190" transform="translate(18.667 19.556)">
          <g id="Rectangle_822" data-name="Rectangle 822" transform="translate(1.778 5.333)" fill="#045498" stroke="#045498" stroke-width="1">
            <rect width="23.111" height="19.556" rx="2" stroke="none"/>
            <rect x="0.5" y="0.5" width="22.111" height="18.556" rx="1.5" fill="none"/>
          </g>
          <g id="Path_137" data-name="Path 137" transform="translate(1)" fill="#fff">
            <path d="M 23.88889312744141 8.388884544372559 L 0.7777739763259888 8.388884544372559 C 0.1098524630069733 8.388884544372559 -0.4400196075439453 7.873795986175537 -0.4954027831554413 7.219957828521729 L 2.113873958587646 2.001384735107422 L 2.118654012680054 1.99183464050293 L 2.123013973236084 1.982094645500183 C 2.392163991928101 1.38470470905304 2.99851393699646 0.5000046491622925 3.444443941116333 0.5000046491622925 L 21.22222328186035 0.5000046491622925 C 21.66815376281738 0.5000046491622925 22.27450370788574 1.38470470905304 22.54389381408691 1.982624650001526 L 22.54803466796875 1.991814613342285 L 22.55279350280762 2.001384735107422 L 25.16207122802734 7.219957828521729 C 25.10668754577637 7.873795986175537 24.55681610107422 8.388884544372559 23.88889312744141 8.388884544372559 Z" stroke="none"/>
            <path d="M 3.468046188354492 1.000004768371582 C 3.252477645874023 1.08204984664917 2.817464828491211 1.661503791809082 2.579364776611328 2.186404705047607 L 2.570644378662109 2.205894470214844 L 2.561094284057617 2.224984645843506 L 0.02332878112792969 7.300532341003418 C 0.1081256866455078 7.638154983520508 0.4142227172851562 7.888884544372559 0.7777748107910156 7.888884544372559 L 23.88888359069824 7.888884544372559 C 24.25244522094727 7.888884544372559 24.55854225158691 7.638154983520508 24.64333915710449 7.300532341003418 L 22.1055736541748 2.224984645843506 L 22.09609413146973 2.205794811248779 L 22.08828353881836 2.18857479095459 C 21.84922027587891 1.66154146194458 21.4141902923584 1.082050323486328 21.19862174987793 1.000004768371582 L 3.468046188354492 1.000004768371582 M 3.44444465637207 4.76837158203125e-06 L 21.22222328186035 4.76837158203125e-06 C 22.20406341552734 4.76837158203125e-06 23.00000381469727 1.777774810791016 23.00000381469727 1.777774810791016 L 25.66666412353516 7.111114501953125 C 25.66666412353516 8.092954635620117 24.87072372436523 8.888884544372559 23.88888359069824 8.888884544372559 L 0.7777748107910156 8.888884544372559 C -0.2040653228759766 8.888884544372559 -0.9999961853027344 8.092954635620117 -0.9999961853027344 7.111114501953125 L 1.666664123535156 1.777774810791016 C 1.666664123535156 1.777774810791016 2.462604522705078 4.76837158203125e-06 3.44444465637207 4.76837158203125e-06 Z" stroke="none" fill="#045498"/>
          </g>
          <g id="Path_138" data-name="Path 138" transform="translate(0.889 4.5)" fill="#fff">
            <path d="M 3.360000133514404 6.111115455627441 C 1.970202326774597 6.111115455627441 0.8087813854217529 5.20147180557251 0.5526100993156433 3.999995231628418 L 6.1673903465271 3.999995231628418 C 5.911219120025635 5.20147180557251 4.749797821044922 6.111115455627441 3.360000133514404 6.111115455627441 Z" stroke="none"/>
            <path d="M 1.281949996948242 4.499995231628418 C 1.681068420410156 5.16100025177002 2.462887287139893 5.611115455627441 3.360000133514404 5.611115455627441 C 4.257112979888916 5.611115455627441 5.038931846618652 5.16100025177002 5.438050270080566 4.499995231628418 L 1.281949996948242 4.499995231628418 M 0 3.499995231628418 L 6.720000267028809 3.499995231628418 C 6.720000267028809 5.218215465545654 5.215680122375488 6.611115455627441 3.360000133514404 6.611115455627441 C 1.50432014465332 6.611115455627441 0 5.218215465545654 0 3.499995231628418 Z" stroke="none" fill="#045498"/>
          </g>
          <g id="Path_139" data-name="Path 139" transform="translate(6.649 4.5)" fill="#fff">
            <path d="M 3.360000133514404 6.111115455627441 C 1.970202326774597 6.111115455627441 0.8087813854217529 5.20147180557251 0.5526100993156433 3.999995231628418 L 6.1673903465271 3.999995231628418 C 5.911219120025635 5.20147180557251 4.749797821044922 6.111115455627441 3.360000133514404 6.111115455627441 Z" stroke="none"/>
            <path d="M 1.281949996948242 4.499995231628418 C 1.681068420410156 5.16100025177002 2.462887287139893 5.611115455627441 3.360000133514404 5.611115455627441 C 4.257112979888916 5.611115455627441 5.038931846618652 5.16100025177002 5.438050270080566 4.499995231628418 L 1.281949996948242 4.499995231628418 M 0 3.499995231628418 L 6.720000267028809 3.499995231628418 C 6.720000267028809 5.218215465545654 5.215680122375488 6.611115455627441 3.360000133514404 6.611115455627441 C 1.50432014465332 6.611115455627441 0 5.218215465545654 0 3.499995231628418 Z" stroke="none" fill="#045498"/>
          </g>
          <g id="Path_140" data-name="Path 140" transform="translate(12.409 4.5)" fill="#fff">
            <path d="M 3.360000133514404 6.111115455627441 C 1.970202326774597 6.111115455627441 0.8087813854217529 5.20147180557251 0.5526100993156433 3.999995231628418 L 6.1673903465271 3.999995231628418 C 5.911219120025635 5.20147180557251 4.749797821044922 6.111115455627441 3.360000133514404 6.111115455627441 Z" stroke="none"/>
            <path d="M 1.281949996948242 4.499995231628418 C 1.681068420410156 5.16100025177002 2.462887287139893 5.611115455627441 3.360000133514404 5.611115455627441 C 4.257112979888916 5.611115455627441 5.038931846618652 5.16100025177002 5.438050270080566 4.499995231628418 L 1.281949996948242 4.499995231628418 M 0 3.499995231628418 L 6.720000267028809 3.499995231628418 C 6.720000267028809 5.218215465545654 5.215680122375488 6.611115455627441 3.360000133514404 6.611115455627441 C 1.50432014465332 6.611115455627441 0 5.218215465545654 0 3.499995231628418 Z" stroke="none" fill="#045498"/>
          </g>
          <g id="Path_141" data-name="Path 141" transform="translate(18.169 4.5)" fill="#fff">
            <path d="M 3.360000133514404 6.111115455627441 C 1.970202326774597 6.111115455627441 0.8087813854217529 5.20147180557251 0.5526100993156433 3.999995231628418 L 6.1673903465271 3.999995231628418 C 5.911219120025635 5.20147180557251 4.749797821044922 6.111115455627441 3.360000133514404 6.111115455627441 Z" stroke="none"/>
            <path d="M 1.281949996948242 4.499995231628418 C 1.681068420410156 5.16100025177002 2.462887287139893 5.611115455627441 3.360000133514404 5.611115455627441 C 4.257112979888916 5.611115455627441 5.038931846618652 5.16100025177002 5.438050270080566 4.499995231628418 L 1.281949996948242 4.499995231628418 M 0 3.499995231628418 L 6.720000267028809 3.499995231628418 C 6.720000267028809 5.218215465545654 5.215680122375488 6.611115455627441 3.360000133514404 6.611115455627441 C 1.50432014465332 6.611115455627441 0 5.218215465545654 0 3.499995231628418 Z" stroke="none" fill="#045498"/>
          </g>
          <g id="Rectangle_823" data-name="Rectangle 823" transform="translate(5.333 13.333)" fill="#045498" stroke="#fff" stroke-width="1">
            <path d="M2,0H5.111a2,2,0,0,1,2,2V12.444a0,0,0,0,1,0,0H0a0,0,0,0,1,0,0V2A2,2,0,0,1,2,0Z" stroke="none"/>
            <path d="M2,.5H5.111A1.5,1.5,0,0,1,6.611,2v9.444a.5.5,0,0,1-.5.5H1a.5.5,0,0,1-.5-.5V2A1.5,1.5,0,0,1,2,.5Z" fill="none"/>
          </g>
          <g id="Rectangle_824" data-name="Rectangle 824" transform="translate(15.111 13.333)" fill="#045498" stroke="#fff" stroke-width="1">
            <rect width="5.333" height="5.333" rx="2" stroke="none"/>
            <rect x="0.5" y="0.5" width="4.333" height="4.333" rx="1.5" fill="none"/>
          </g>
        </g>
      </g>
    </g>
  </g>
</svg>
