<?xml version="1.0" encoding="UTF-8" standalone="no"?>
<svg
   xmlns:dc="http://purl.org/dc/elements/1.1/"
   xmlns:cc="http://creativecommons.org/ns#"
   xmlns:rdf="http://www.w3.org/1999/02/22-rdf-syntax-ns#"
   xmlns:svg="http://www.w3.org/2000/svg"
   xmlns="http://www.w3.org/2000/svg"
   width="99.999992"
   height="99.994545"
   viewBox="0 0 99.999992 99.994546"
   version="1.1"
   id="SVGRoot">
  <defs
     id="defs161" />
  <metadata
     id="metadata164">
    <rdf:RDF>
      <cc:Work
         rdf:about="">
        <dc:format>image/svg+xml</dc:format>
        <dc:type
           rdf:resource="http://purl.org/dc/dcmitype/StillImage" />
        <dc:title></dc:title>
      </cc:Work>
    </rdf:RDF>
  </metadata>
  <g
     transform="translate(309.79774,70.756141)"
     id="layer1">
    <path
       id="path320"
       d="m -261.63648,29.249696 c -22.14135,-0.84383 -41.24517,-16.26757 -46.64828,-37.66215 -1.76061,-6.97142 -1.99741,-14.99797 -0.64342,-21.80894 4.02799,-20.261922 19.41452,-35.648482 39.67643,-39.676462 5.75658,-1.14438 13.16271,-1.14438 18.91929,0 20.26191,4.02798 35.64845,19.41454 39.67643,39.676462 1.14439,5.75658 1.14439,13.16271 0,18.91929 -3.07019,15.44394 -12.80853,28.29004 -26.74214,35.27626 -7.41484,3.71775 -16.01243,5.58904 -24.23831,5.27554 z m 5.53313,-3.10735 c 11.55566,-0.98618 21.81197,-5.78598 29.85174,-13.97018 3.10979,-3.16566 5.16327,-5.87964 7.44277,-9.83675 4.49247,-7.79872 6.69202,-17.74952 5.92084,-26.78592 -0.98618,-11.55565 -5.78599,-21.81197 -13.97019,-29.851752 -3.16565,-3.10981 -5.87963,-5.16328 -9.83675,-7.44279 -7.79872,-4.49246 -17.74951,-6.69202 -26.78591,-5.92084 -15.81332,1.34954 -29.32726,9.97616 -37.29451,23.806962 -4.49247,7.79873 -6.69202,17.74952 -5.92084,26.78592 1.34954,15.81333 9.97615,29.32727 23.80693,37.29451 7.79361,4.48953 17.75544,6.69152 26.78592,5.92084 z m -22.78263,-25.08962 c -0.46044,-0.23113 -0.96153,-0.64676 -1.19425,-0.99059 l -0.40095,-0.59238 -0.0421,-18.0601 -0.0421,-18.0601 0.46497,-0.73318 c 0.75244,-1.18648 1.42466,-1.42092 4.07411,-1.42092 h 2.18845 l 0.0534,1.40332 c 0.0294,0.77183 0.0683,0.11871 0.0864,-1.45138 0.0465,-4.02713 0.17343,-4.19671 3.06613,-4.09709 2.38683,0.0822 2.3168,-0.0317 2.42786,3.94871 0.0485,1.73991 0.10268,2.49589 0.12029,1.67995 l 0.032,-1.48352 h 8.25959 8.25959 l 0.0318,1.40333 c 0.0175,0.77183 0.0716,0.0159 0.12029,-1.67996 0.11153,-3.88826 0.0477,-3.78653 2.42803,-3.86851 2.8927,-0.0996 3.01961,0.07 3.06613,4.09709 0.0181,1.57009 0.057,2.22321 0.0864,1.45138 l 0.0534,-1.40333 h 2.18845 c 2.64748,0 3.32189,0.23481 4.07209,1.41775 l 0.46295,0.73 v 17.85617 c 0,14.67477 -0.0388,17.94899 -0.21768,18.37715 -0.27552,0.65941 -1.07083,1.41569 -1.7465,1.66078 -0.38864,0.14097 -5.18751,0.19235 -18.81369,0.20144 l -18.29197,0.0122 z m 37.95091,-1.51402 0.46881,-0.4688 v -14.12582 -14.12581 h -19.32584 -19.32584 v 14.12581 14.12582 l 0.4688,0.4688 0.46881,0.46881 h 18.38823 18.38823 z m -34.17336,-4.98413 v -2.72646 h 2.72646 2.72647 v 2.72646 2.72647 h -2.72647 -2.72646 z m 8.50016,0 v -2.72646 h 2.64628 2.64627 v 2.72646 2.72647 h -2.64627 -2.64628 z m 8.33978,0 v -2.72646 h 2.64628 2.64628 v 2.72646 2.72647 h -2.64628 -2.64628 z m -16.83994,-8.33978 v -2.72647 h 2.72646 2.72647 v 2.72647 2.72647 h -2.72647 -2.72646 z m 8.50016,0 v -2.72647 h 2.64628 2.64627 v 2.72647 2.72647 h -2.64627 -2.64628 z m 8.33978,0 v -2.72647 h 2.64628 2.64628 v 2.72647 2.72647 h -2.64628 -2.64628 z m 8.33978,0 v -2.72647 h 2.72647 2.72647 v 2.72647 2.72647 h -2.72647 -2.72647 z m -25.17972,-8.33978 v -2.72647 h 2.72646 2.72647 v 2.72647 2.72647 h -2.72647 -2.72646 z m 8.50016,0 v -2.72647 h 2.64628 2.64627 v 2.72647 2.72647 h -2.64627 -2.64628 z m 8.33978,0 v -2.72647 h 2.64628 2.64628 v 2.72647 2.72647 h -2.64628 -2.64628 z m 8.33978,0 v -2.72647 h 2.72647 2.72647 v 2.72647 2.72647 h -2.72647 -2.72647 z m -20.16783,-12.62791 c -0.4631,-0.0324 -1.2209,-0.0324 -1.684,0 -0.4631,0.0324 -0.0842,0.0589 0.842,0.0589 0.92619,0 1.30509,-0.0265 0.842,-0.0589 z m 22.29287,0 c -0.46309,-0.0324 -1.22089,-0.0324 -1.68399,0 -0.4631,0.0324 -0.0842,0.0589 0.842,0.0589 0.9262,0 1.30509,-0.0265 0.84199,-0.0589 z m -25.05944,-0.0975 c 0,-0.0304 -0.16238,-0.19282 -0.36085,-0.36086 l -0.36086,-0.30552 0.30552,0.36085 c 0.28712,0.33912 0.41619,0.43387 0.41619,0.30553 z m 26.54296,-0.26543 c 0.15966,-0.17642 0.2542,-0.32076 0.2101,-0.32076 -0.0441,0 -0.21082,0.14434 -0.37048,0.32076 -0.15965,0.17642 -0.2542,0.32076 -0.21009,0.32076 0.0441,0 0.21082,-0.14434 0.37047,-0.32076 z m -23.33535,-3.76894 v -2.64629 h -1.28304 -1.28304 v 2.64629 2.64628 h 1.28304 1.28304 z m 22.29288,0 v -2.64629 h -1.28304 -1.28305 v 2.64629 2.64628 h 1.28305 1.28304 z"
       style="fill:#064495;stroke-width:0.16038;fill-opacity:1" />
  </g>
</svg>
