<?xml version="1.0" encoding="UTF-8"?>
<svg xmlns="http://www.w3.org/2000/svg" xmlns:xlink="http://www.w3.org/1999/xlink" width="32px" height="32px" viewBox="0 0 32 32" version="1.1">
<g id="surface1">
<path style=" stroke:none;fill-rule:nonzero;fill:rgb(2.352941%,33.72549%,58.431373%);fill-opacity:1;" d="M 16 0 C 7.199219 0 0 7.199219 0 16 C 0 24.800781 7.199219 32 16 32 C 24.800781 32 32 24.800781 32 16 C 32 7.199219 24.800781 0 16 0 Z M 23.398438 14 C 21.800781 14 20.398438 13.5 19.199219 12.5 L 19.199219 18.699219 C 19.199219 20.601562 19.101562 21.898438 17.601562 23.300781 C 16.601562 24.300781 15.300781 24.898438 13.800781 24.898438 C 12.300781 24.898438 11 24.300781 10 23.300781 C 9 22.300781 8.398438 21 8.398438 19.5 C 8.398438 18 9 16.699219 10 15.699219 C 11 14.699219 12.398438 14.199219 13.898438 14.199219 L 13.898438 16.699219 C 13.101562 16.699219 12.300781 17 11.800781 17.5 C 11.300781 18 11 18.699219 11 19.5 C 11 20.300781 11.300781 21 11.800781 21.5 C 12.300781 22 13 22.300781 13.800781 22.300781 C 14.199219 22.300781 14.601562 22.199219 14.898438 22.101562 C 15.199219 22 15.5 21.800781 15.800781 21.5 C 16.300781 21 16.601562 20.300781 16.601562 19.5 L 16.601562 7.300781 L 19.101562 7.300781 C 19.101562 8.398438 19.601562 9.5 20.300781 10.199219 C 21 11 22.101562 11.398438 23.199219 11.398438 L 23.199219 14 Z M 23.398438 14 "/>
</g>
</svg>
