<svg xmlns="http://www.w3.org/2000/svg" width="32" height="32" viewBox="0 0 32 32"><defs><style>.a{fill:#065695;}.b{fill:#fff;}</style></defs><g transform="translate(24 -1798)"><g transform="translate(-24 1798)"><circle class="a" cx="16" cy="16" r="16" transform="translate(0 0)"/><g transform="translate(7.2 8.8)"><path class="b" d="M42.7,35.721a7.2,7.2,0,0,1-2.074.568,3.621,3.621,0,0,0,1.588-2,7.228,7.228,0,0,1-2.293.876,3.614,3.614,0,0,0-6.153,3.294,10.25,10.25,0,0,1-7.443-3.773,3.615,3.615,0,0,0,1.117,4.821,3.585,3.585,0,0,1-1.635-.452c0,.015,0,.031,0,.046a3.613,3.613,0,0,0,2.9,3.54,3.625,3.625,0,0,1-1.631.062,3.615,3.615,0,0,0,3.373,2.508,7.289,7.289,0,0,1-5.346,1.5,10.269,10.269,0,0,0,15.808-8.652q0-.235-.011-.467a7.322,7.322,0,0,0,1.8-1.869Z" transform="translate(-25.103 -34.028)"/></g></g></g></svg>