<?xml version="1.0" encoding="utf-8"?>
<!-- Generator: Adobe Illustrator 25.0.0, SVG Export Plug-In . SVG Version: 6.00 Build 0)  -->
<svg version="1.1" id="Layer_1" xmlns="http://www.w3.org/2000/svg" xmlns:xlink="http://www.w3.org/1999/xlink" x="0px" y="0px"
	 viewBox="0 0 127.56 127.56" style="enable-background:new 0 0 127.56 127.56;" xml:space="preserve">
<style type="text/css">
	.st0{clip-path:url(#SVGID_3_);}
	.st1{clip-path:url(#SVGID_4_);}
	.st2{fill:#FFFFFF;}
	.st3{fill:#005496;}
	.st4{fill:#005596;}
	.st5{clip-path:url(#SVGID_7_);}
	.st6{clip-path:url(#SVGID_8_);}
	.st7{clip-path:url(#SVGID_11_);}
	.st8{clip-path:url(#SVGID_12_);}
	.st9{fill:#005496;stroke:#FFFFFF;stroke-width:0.25;stroke-miterlimit:10;}
	.st10{fill:#FFFFFF;stroke:#FFFFFF;stroke-width:0.25;stroke-miterlimit:10;}
	.st11{fill:#005596;stroke:#FFFFFF;stroke-width:0.25;stroke-miterlimit:10;}
	.st12{display:none;clip-path:url(#SVGID_16_);}
	.st13{fill-rule:evenodd;clip-rule:evenodd;fill:#FFFFFF;stroke:#005496;stroke-width:0.25;stroke-miterlimit:10;}
	.st14{clip-path:url(#SVGID_16_);}
	.st15{fill:#FFFFFF;stroke:#005496;stroke-width:0.25;stroke-miterlimit:10;}
	.st16{fill:#005496;stroke:#005496;stroke-width:0.25;stroke-miterlimit:10;}
	.st17{clip-path:url(#SVGID_16_);fill:#005496;stroke:#005496;stroke-width:0.25;stroke-miterlimit:10;}
	.st18{fill:#005596;stroke:#005496;stroke-width:0.25;stroke-miterlimit:10;}
</style>
<g>
	<defs>
		<path id="SVGID_15_" d="M63.78,0C99,0,127.56,28.56,127.56,63.78c0,35.22-28.56,63.78-63.78,63.78C28.56,127.56,0,99,0,63.78
			C0,28.56,28.56,0,63.78,0"/>
	</defs>
	<clipPath id="SVGID_3_">
		<use xlink:href="#SVGID_15_"  style="overflow:visible;"/>
	</clipPath>
	<g style="display:none;clip-path:url(#SVGID_3_);">
		<path class="st13" d="M63.78,0C99,0,127.56,28.56,127.56,63.78c0,35.22-28.56,63.78-63.78,63.78C28.56,127.56,0,99,0,63.78
			C0,28.56,28.56,0,63.78,0"/>
	</g>
	<g class="st0">
		<path class="st15" d="M37.08,76.08l-0.4,14.29c0,0-0.45,7.88,5.52,8.02c5.97,0.14,44.24,0,44.24,0s4.29,0.86,4.39-6.51
			c0.1-7.37,0-15.43,0-15.43L81.8,66.02l-42.55,3.29L37.08,76.08z"/>
		<path class="st16" d="M56.37,99.97c-6.58,0-12.19-0.02-14.2-0.06c-1.91-0.05-3.48-0.73-4.68-2.03c-2.56-2.77-2.32-7.4-2.31-7.59
			l0.47-14.67l2.48-7.73l44.33-3.43l9.9,11.42l0.01,0.56c0,0.08,0.1,8.17,0,15.47c-0.04,3.31-0.89,5.66-2.52,6.98
			c-1.43,1.15-2.95,1.1-3.5,1.03C84.58,99.91,68.76,99.97,56.37,99.97z M38.59,76.33L38.2,90.41c-0.05,1.02,0.12,3.91,1.52,5.42
			c0.63,0.68,1.45,1.02,2.52,1.05c5.87,0.14,43.82,0,44.2,0l0.15,0l0.15,0.03l0,0c0.01,0,0.64,0.08,1.23-0.42
			c0.84-0.72,1.32-2.36,1.35-4.62c0.08-6.17,0.03-12.9,0.01-14.84l-8.17-9.43l-40.77,3.16L38.59,76.33z"/>
	</g>
	<path style="clip-path:url(#SVGID_3_);fill:#005496;stroke:#005496;stroke-width:0.25;stroke-miterlimit:10;" d="M63.78,127.56
		C28.61,127.56,0,98.95,0,63.78C0,28.61,28.61,0,63.78,0c35.17,0,63.78,28.61,63.78,63.78C127.56,98.95,98.95,127.56,63.78,127.56z
		 M63.78,2.96c-33.54,0-60.82,27.28-60.82,60.82c0,33.54,27.28,60.82,60.82,60.82c33.53,0,60.81-27.28,60.81-60.82
		C124.6,30.24,97.32,2.96,63.78,2.96z"/>
	<g class="st0">
		<g>
			<g>
				<g>
					<path class="st15" d="M28.13,116.91c1.09-7.15,7.2-9.92,10.82-11c3.62-1.09,9.63-1.49,13.43-3.66c3.8-2.17,3.2-13.03,3.2-13.03
						h8.2h8.21c0,0-0.6,10.86,3.2,13.03c3.8,2.17,9.81,2.57,13.43,3.66c3.62,1.08,9.74,3.85,10.82,11
						c0.87,5.73,0.91,13.39,0.91,13.39H63.78H27.22C27.22,130.3,27.25,122.64,28.13,116.91z"/>
					<path class="st16" d="M26.15,131.37c-0.28-0.28-0.44-0.67-0.44-1.07c0-0.32,0.05-7.84,0.92-13.61
						c0.89-5.85,5.11-10.19,11.88-12.22c1.32-0.4,2.88-0.69,4.53-1.01c2.95-0.57,6.3-1.21,8.58-2.51c2.06-1.18,2.66-7.51,2.44-11.64
						c-0.02-0.41,0.13-0.82,0.41-1.12c0.29-0.3,0.68-0.47,1.1-0.47h16.41c0.41,0,0.81,0.17,1.1,0.47c0.28,0.3,0.43,0.71,0.41,1.12
						c-0.23,4.12,0.38,10.46,2.44,11.64c2.28,1.3,5.62,1.94,8.58,2.51c1.65,0.32,3.22,0.62,4.53,1.01c6.78,2.03,11,6.37,11.88,12.22
						c0.88,5.77,0.92,13.29,0.93,13.61c0,0.4-0.16,0.79-0.44,1.07c-0.28,0.28-0.67,0.45-1.07,0.45H27.22
						C26.82,131.81,26.43,131.65,26.15,131.37z M97.94,117.14c-0.9-5.94-5.81-8.6-9.77-9.78c-1.17-0.35-2.66-0.64-4.23-0.94
						c-3.18-0.61-6.79-1.3-9.51-2.85c-3.65-2.09-4.04-9.33-4.01-12.84h-13.3c0.04,3.51-0.35,10.75-4.01,12.84
						c-2.71,1.55-6.32,2.24-9.51,2.85c-1.58,0.3-3.07,0.59-4.24,0.94c-3.96,1.18-8.86,3.84-9.77,9.78
						c-0.61,4.05-0.81,9.15-0.86,11.65H98.8C98.75,126.29,98.55,121.18,97.94,117.14z"/>
				</g>
			</g>
			<g>
				<g>
					<path class="st15" d="M40.41,62.11c0,0-3.46-14.79,0.57-23.02c4.34-8.87,10.86-13.94,22.8-13.94c11.94,0,18.46,5.07,22.8,13.94
						c4.03,8.23,0.56,23.02,0.56,23.02c5.43-1.09,4.41,4.85,2.72,7.54c-1.41,2.23-1.44,2.47-2.29,4.91
						c-1.22,3.53-4.03,1.09-4.03,1.09c-1.63,4.53-2.78,5.6-9.28,11.58c-5.65,5.22-7.64,5.16-10.5,5.16c-2.86,0-4.8,0.06-10.5-5.16
						c-6.52-5.96-7.65-7.05-9.28-11.58c0,0-2.8,2.44-4.03-1.09c-0.85-2.45-0.88-2.69-2.29-4.91C36,66.96,34.98,61.02,40.41,62.11z"
						/>
					<path class="st16" d="M52.26,88.34c-5.83-5.33-7.54-6.98-9.05-10.56c-0.36,0.12-0.76,0.19-1.19,0.19l0,0
						c-0.92,0-2.59-0.38-3.47-2.92l-0.18-0.53c-0.66-1.92-0.75-2.16-1.95-4.07c-1.11-1.75-2.36-5.46-0.99-7.94
						c0.63-1.14,1.72-1.84,3.11-2.01c-0.81-4.4-2.29-15.21,1.08-22.08c5.01-10.22,12.46-14.78,24.16-14.78
						c11.7,0,19.16,4.56,24.16,14.78c3.36,6.87,1.88,17.67,1.07,22.08c1.39,0.17,2.48,0.86,3.11,2.01c1.37,2.48,0.12,6.19-0.99,7.94
						c-1.2,1.91-1.29,2.16-1.95,4.08l-0.18,0.53c-0.88,2.55-2.56,2.93-3.48,2.93c-0.42,0-0.83-0.08-1.19-0.19
						c-1.53,3.63-3.28,5.24-9.04,10.55c-5.62,5.18-8.03,5.56-11.43,5.56l-0.09-1.51l-0.09,1.51c0,0-0.09,0-0.09,0
						C60.33,93.9,58.04,93.63,52.26,88.34z M63.96,90.88c2.49,0,4.13,0,9.29-4.76c6.39-5.89,7.37-6.79,8.88-10.98
						c0.17-0.46,0.56-0.81,1.03-0.94c0.48-0.13,0.99-0.01,1.37,0.31c0.22,0.19,0.69,0.46,1,0.46c0.3,0,0.57-0.74,0.62-0.9l0.18-0.52
						c0.73-2.1,0.9-2.56,2.25-4.7c0.98-1.56,1.42-3.92,0.89-4.87c-0.09-0.16-0.26-0.48-1.12-0.48c-0.27,0-0.58,0.03-0.92,0.1
						c-0.5,0.09-1.02-0.06-1.38-0.43c-0.36-0.37-0.5-0.89-0.38-1.39c0.03-0.14,3.3-14.35-0.45-22.01
						c-4.49-9.17-10.91-13.09-21.45-13.09c-10.54,0-16.96,3.92-21.45,13.09c-3.74,7.64-0.49,21.87-0.45,22.01
						c0.12,0.5-0.03,1.02-0.39,1.39c-0.36,0.37-0.88,0.53-1.38,0.43c-0.34-0.07-0.65-0.1-0.92-0.1c-0.86,0-1.03,0.32-1.12,0.48
						c-0.52,0.95-0.09,3.32,0.9,4.87c1.35,2.14,1.53,2.6,2.25,4.7l0.18,0.53c0.05,0.15,0.32,0.89,0.62,0.89
						c0.31,0,0.77-0.27,0.99-0.45c0.37-0.33,0.89-0.45,1.37-0.32c0.48,0.13,0.87,0.48,1.04,0.95c1.48,4.11,2.36,5.02,8.87,10.98
						c5.2,4.76,6.83,4.76,9.29,4.76h0.18H63.96z"/>
				</g>
			</g>
			<g>
				<g>
					<path class="st15" d="M48.22,25.15c13.3-6.95,24.48,0,24.48,0c27.56,3.05,17.92,37.81,17.92,37.81h-0.01
						c-0.59-0.8-1.67-1.21-3.46-0.85c0.38-2.53-2.73-5.62-7.62-9.23C74.64,49.25,72.7,44,72.7,44s-4.89,9.23-17.13,11.67
						c-12.25,2.44-14.83,4.17-15.17,6.43c-1.78-0.36-2.86,0.05-3.46,0.85h-0.02C36.93,62.96,29.53,34.92,48.22,25.15z"/>
					<path class="st18" d="M35.47,63.34c-0.32-1.19-7.49-29.33,12.05-39.53c4.14-2.16,8.5-3.26,12.96-3.26
						c6.65,0,11.47,2.43,12.71,3.13c7.21,0.87,12.63,3.92,16.12,9.07c7.89,11.66,2.98,29.84,2.76,30.61
						c-0.18,0.65-0.79,1.11-1.47,1.11c-0.48,0-0.93-0.23-1.21-0.61c-0.08-0.1-0.28-0.37-1.05-0.37c-0.27,0-0.57,0.03-0.91,0.1
						c-0.1,0.02-0.2,0.03-0.3,0.03c-0.01,0-0.02,0-0.03,0c-0.83,0-1.51-0.68-1.51-1.51c0-0.15,0.02-0.29,0.06-0.43
						c0.01-1.57-2.36-4.12-7.04-7.59c-3.04-2.25-5.01-5.07-6.14-7.06c-2.37,3.08-7.6,8.33-16.62,10.13
						c-9.4,1.88-13.71,3.47-13.97,5.17c-0.06,0.41-0.29,0.77-0.63,1.01c-0.34,0.24-0.76,0.32-1.16,0.24c-0.33-0.07-0.64-0.1-0.9-0.1
						c-0.77,0-0.97,0.27-1.04,0.37c-0.28,0.38-0.73,0.61-1.21,0.61h-0.02C36.25,64.47,35.65,64.01,35.47,63.34z M48.92,26.49
						C34.3,34.13,36.77,54.23,37.97,60.61c0.41-0.1,0.88-0.16,1.39-0.14c1.35-2.61,5.63-4.22,15.92-6.27
						c11.34-2.26,16.05-10.82,16.09-10.9c0.28-0.52,0.82-0.82,1.43-0.8c0.59,0.04,1.11,0.42,1.32,0.98
						c0.02,0.05,1.87,4.89,6.31,8.18c4.97,3.68,7.5,6.39,8.11,8.81c0.4,0.01,0.75,0.06,1.07,0.14c1-4.86,2.9-17.75-2.81-26.17
						c-3.02-4.45-7.82-7.08-14.27-7.79c-0.22-0.03-0.44-0.1-0.63-0.22c-0.05-0.03-4.73-2.86-11.43-2.86
						C56.51,23.57,52.63,24.56,48.92,26.49z"/>
				</g>
			</g>
			<g>
				<g>
					<path class="st16" d="M75.18,102.25c3.8,2.17,9.81,2.57,13.43,3.66c3.62,1.08,9.74,3.85,10.82,11
						c0.87,5.73,0.91,13.39,0.91,13.39H63.78H27.22c0,0,0.04-7.66,0.91-13.39c1.09-7.15,7.2-9.92,10.82-11
						c3.62-1.09,9.63-1.49,13.43-3.66c0.17-0.09,0.32-0.21,0.46-0.33l11.03,11.69l10.85-11.69
						C74.87,102.04,75.02,102.16,75.18,102.25z"/>
					<path class="st18" d="M26.15,131.37c-0.28-0.28-0.44-0.67-0.44-1.07c0-0.32,0.05-7.84,0.92-13.61
						c0.89-5.85,5.11-10.19,11.88-12.22c1.32-0.4,2.88-0.69,4.53-1.01c2.95-0.57,6.3-1.21,8.59-2.52c0.09-0.05,0.17-0.12,0.25-0.18
						c0.61-0.5,1.51-0.45,2.06,0.13l9.92,10.52l9.75-10.51c0.54-0.59,1.45-0.65,2.06-0.14c0.08,0.06,0.16,0.13,0.26,0.19
						c2.28,1.3,5.62,1.94,8.58,2.51c1.65,0.32,3.22,0.62,4.53,1.01c6.78,2.03,11,6.37,11.88,12.22c0.88,5.77,0.92,13.29,0.93,13.61
						c0,0.4-0.16,0.79-0.44,1.07c-0.28,0.28-0.67,0.45-1.07,0.45H27.22C26.82,131.81,26.43,131.65,26.15,131.37z M97.94,117.14
						c-0.9-5.94-5.81-8.6-9.77-9.78c-1.17-0.35-2.66-0.64-4.23-0.94c-2.98-0.57-6.32-1.21-8.96-2.56l-10,10.78
						c-0.28,0.31-0.68,0.48-1.1,0.48c0,0,0,0-0.01,0c-0.42,0-0.81-0.17-1.1-0.47l-10.18-10.8c-2.64,1.35-5.99,1.99-8.97,2.56
						c-1.58,0.3-3.07,0.59-4.24,0.94c-3.96,1.18-8.86,3.84-9.77,9.78c-0.61,4.05-0.81,9.15-0.86,11.65H98.8
						C98.75,126.29,98.55,121.18,97.94,117.14z"/>
				</g>
			</g>
			<g>
				<g>
					<path class="st15" d="M52.56,102.25c0.17-0.09,0.32-0.21,0.47-0.33c0,0,5.4,3.67,10.84,3.67c5.56,0,10.84-3.67,10.84-3.67
						c0.15,0.12,0.3,0.24,0.46,0.33c1.72,0.98,3.88,1.59,6.08,2.08v0.01l-17.38,19.08l-17.39-19.08v-0.01
						C48.68,103.84,50.85,103.23,52.56,102.25z"/>
					<path class="st18" d="M62.76,124.43l-17.39-19.08c-0.25-0.28-0.39-0.65-0.39-1.02c0-0.71,0.49-1.32,1.18-1.47
						c1.75-0.39,3.98-0.96,5.66-1.92c0.09-0.05,0.17-0.12,0.25-0.18c0.52-0.42,1.25-0.46,1.81-0.08c0.05,0.03,5.07,3.41,10,3.41
						c5.01,0,9.93-3.37,9.99-3.4c0.55-0.38,1.3-0.35,1.82,0.07c0.08,0.06,0.16,0.13,0.26,0.19c1.67,0.96,3.9,1.52,5.65,1.91
						c0.69,0.15,1.18,0.77,1.18,1.48c0,0.38-0.14,0.74-0.39,1.02l-17.38,19.08c-0.29,0.31-0.69,0.49-1.12,0.49l0,0
						C63.45,124.92,63.04,124.74,62.76,124.43z M74.71,103.71c-1.81,1.09-6.18,3.38-10.83,3.38c-4.57,0-9-2.31-10.83-3.39
						c-1.17,0.63-2.48,1.1-3.75,1.47l14.57,15.99l14.57-15.99C77.18,104.81,75.87,104.34,74.71,103.71z"/>
				</g>
			</g>
		</g>
		<g>
			<path class="st18" d="M57.66,84.95c0.83,0,1.51-0.68,1.51-1.51c0-0.83-0.68-1.51-1.51-1.51c-9.24,0-15.74-1.98-18.79-5.73
				c-2.5-3.08-1.87-6.3-1.86-6.33c0.17-0.82-0.35-1.62-1.17-1.79c-0.82-0.18-1.62,0.35-1.79,1.17c-0.04,0.19-0.93,4.67,2.47,8.85
				C40.23,82.64,47.34,84.95,57.66,84.95z"/>
		</g>
		<g>
			<g>
				<path class="st15" d="M30.62,66.33c0-5.7,2.36-10.32,5.28-10.35v0h1.9v0.64c2.15,1.45,3.86,5.25,3.86,9.72
					c0,4.47-1.71,8.27-3.86,9.72v0.64h-1.9v0C32.98,76.65,30.62,72.03,30.62,66.33z"/>
				<path class="st18" d="M35.88,78.19c-3.86-0.04-6.77-5.14-6.77-11.86s2.91-11.82,6.79-11.87h1.9c0.8,0,1.45,0.62,1.51,1.41
					c2.34,2.06,3.86,6.12,3.86,10.46c0,4.33-1.53,8.4-3.86,10.46c-0.05,0.79-0.71,1.41-1.51,1.41h-1.9
					C35.89,78.2,35.89,78.19,35.88,78.19z M36.95,74.8c1.59-1.07,3.2-4.33,3.2-8.47c0-4.14-1.61-7.39-3.2-8.47
					c-0.15-0.1-0.28-0.23-0.39-0.38l-0.65,0c-1.78,0.02-3.78,3.8-3.78,8.84c0,5.03,1.99,8.81,3.78,8.85h0.66
					C36.67,75.03,36.8,74.9,36.95,74.8z"/>
			</g>
			<g>
				<path class="st15" d="M35.76,74.5c0,1.35,0.88,2.45,1.97,2.45h1.97c1.09,0,1.96-1.1,1.96-2.45V58.16c0-1.35-0.88-2.45-1.96-2.45
					h-1.97c-1.09,0-1.97,1.09-1.97,2.45V74.5z"/>
				<path class="st18" d="M34.25,74.5V58.16c0-2.18,1.56-3.96,3.48-3.96h1.97c1.92,0,3.47,1.78,3.47,3.96V74.5
					c0,2.18-1.56,3.96-3.47,3.96h-1.97C35.81,78.46,34.25,76.69,34.25,74.5z M37.73,57.22c-0.14,0-0.46,0.35-0.46,0.94V74.5
					c0,0.58,0.32,0.94,0.46,0.94h1.97c0.14,0,0.45-0.35,0.45-0.94V58.16c0-0.58-0.32-0.94-0.45-0.94H37.73z"/>
			</g>
			<g>
				<path class="st15" d="M96.94,66.33c0-5.7-2.36-10.32-5.27-10.35v0h-1.9v0.64c-2.15,1.45-3.86,5.25-3.86,9.72
					c0,4.47,1.72,8.27,3.86,9.72v0.64h1.9v0C94.58,76.65,96.94,72.03,96.94,66.33z"/>
				<path class="st18" d="M88.26,76.79c-2.34-2.06-3.87-6.12-3.87-10.46s1.53-8.4,3.87-10.46c0.03-0.36,0.18-0.71,0.44-0.97
					c0.28-0.28,0.67-0.44,1.07-0.44c0,0,0,0,0,0l1.91,0c3.86,0.04,6.77,5.14,6.77,11.86c0,6.72-2.91,11.82-6.78,11.87h-1.9
					C88.96,78.2,88.31,77.57,88.26,76.79z M91,57.49c-0.1,0.15-0.23,0.27-0.39,0.38c-1.59,1.08-3.2,4.33-3.2,8.47
					c0,4.14,1.61,7.39,3.2,8.47c0.15,0.1,0.28,0.23,0.39,0.38l0.65,0c1.78-0.02,3.78-3.8,3.78-8.84c0-5.04-2-8.83-3.76-8.85H91z"/>
			</g>
			<g>
				<path class="st15" d="M91.8,74.5c0,1.35-0.88,2.45-1.96,2.45h-1.97c-1.09,0-1.97-1.1-1.97-2.45V58.16
					c0-1.35,0.88-2.45,1.97-2.45h1.97c1.09,0,1.96,1.09,1.96,2.45V74.5z"/>
				<path class="st18" d="M84.39,74.5V58.16c0-2.18,1.56-3.96,3.48-3.96h1.97c1.92,0,3.47,1.78,3.47,3.96V74.5
					c0,2.18-1.56,3.96-3.47,3.96h-1.97C85.95,78.46,84.39,76.69,84.39,74.5z M87.87,57.22c-0.14,0-0.46,0.35-0.46,0.94V74.5
					c0,0.58,0.32,0.94,0.46,0.94h1.97c0.14,0,0.45-0.35,0.45-0.94V58.16c0-0.58-0.32-0.94-0.45-0.94H87.87z"/>
			</g>
			<g>
				<path class="st18" d="M35.78,58.31c0.83,0,1.51-0.68,1.51-1.51c0-14.6,11.88-26.48,26.48-26.48c14.6,0,26.49,11.88,26.49,26.48
					c0,0.83,0.68,1.51,1.51,1.51s1.51-0.68,1.51-1.51c0-16.27-13.24-29.51-29.51-29.51c-16.27,0-29.51,13.24-29.51,29.51
					C34.27,57.63,34.95,58.31,35.78,58.31z"/>
			</g>
		</g>
		<g>
			<path class="st18" d="M54.83,83.46c0,1.1,0.98,2,2.19,2h7.47c1.21,0,2.19-0.89,2.19-2V83.4c0-1.1-0.98-2-2.19-2h-7.47
				c-1.21,0-2.19,0.89-2.19,2V83.46z"/>
			<path class="st16" d="M53.32,83.4c0-1.93,1.66-3.51,3.7-3.51h7.47c2.04,0,3.7,1.57,3.7,3.57c0,1.93-1.66,3.51-3.7,3.51h-7.47
				C54.98,86.97,53.32,85.4,53.32,83.4z M57.02,82.92c-0.4,0-0.68,0.26-0.68,0.55c0,0.23,0.28,0.49,0.68,0.49h7.47
				c0.4,0,0.68-0.26,0.68-0.55c0-0.23-0.28-0.49-0.68-0.49H57.02z"/>
		</g>
	</g>
</g>
</svg>
